<svg width="16" height="15" viewBox="0 0 16 15" fill="none" xmlns="http://www.w3.org/2000/svg">
	<path d="M15.9583 5.65815C15.8535 5.34177 15.5662 5.11707 15.2262 5.08715L10.6082 4.67767L8.78207 0.503887C8.64742 0.198002 8.34077 0 8.00006 0C7.65936 0 7.35271 0.198002 7.21806 0.504602L5.39197 4.67767L0.77321 5.08715C0.433846 5.11778 0.147218 5.34177 0.0418691 5.65815C-0.0634801 5.97452 0.0338122 6.32153 0.290532 6.54028L3.78121 9.52975L2.75189 13.9574C2.67657 14.283 2.80597 14.6195 3.08259 14.8148C3.23128 14.9197 3.40523 14.9731 3.58065 14.9731C3.7319 14.9731 3.88193 14.9333 4.01657 14.8546L8.00006 12.5297L11.9821 14.8546C12.2735 15.0258 12.6408 15.0102 12.9168 14.8148C13.1935 14.6189 13.3228 14.2823 13.2475 13.9574L12.2182 9.52975L15.7089 6.54087C15.9656 6.32153 16.0636 5.97512 15.9583 5.65815Z" fill="#FFC107" />
</svg>
